<?xml version="1.0" encoding="UTF-8" standalone="no"?>
<!DOCTYPE svg PUBLIC "-//W3C//DTD SVG 1.1//EN" "http://www.w3.org/Graphics/SVG/1.1/DTD/svg11.dtd">
<svg version="1.1" xmlns="http://www.w3.org/2000/svg" xmlns:xlink="http://www.w3.org/1999/xlink" preserveAspectRatio="xMidYMid meet" viewBox="0 0 100 100" width="100" height="100"><defs><path d="M100 50C100 77.6 77.6 100 50 100C22.4 100 0 77.6 0 50C0 22.4 22.4 0 50 0C77.6 0 100 22.4 100 50Z" id="bNUQ5UGv5"></path><path d="M23.97 75.39L28.47 75.39L28.47 88.39L23.97 88.39L23.97 75.39Z" id="d29brMob3j"></path><path d="M36.97 47C36.97 64.45 32.09 78.63 26.09 78.63C20.09 78.63 15.22 64.45 15.22 47C15.22 29.55 20.09 15.37 26.09 15.37C32.09 15.37 36.97 29.55 36.97 47Z" id="a2dQdSl52"></path><path d="M48.34 76.39L52.84 76.39L52.84 89.39L48.34 89.39L48.34 76.39Z" id="cynfgGfW8"></path><path d="M61.72 41.27C61.72 62.31 56.73 79.39 50.59 79.39C44.45 79.39 39.47 62.31 39.47 41.27C39.47 20.22 44.45 3.14 50.59 3.14C56.73 3.14 61.72 20.22 61.72 41.27Z" id="b1ByVmm3VV"></path><path d="M74.97 75.39L79.47 75.39L79.47 88.39L74.97 88.39L74.97 75.39Z" id="e35fNrN9Ly"></path><path d="M88.09 47C88.09 64.45 83.22 78.63 77.22 78.63C71.21 78.63 66.34 64.45 66.34 47C66.34 29.55 71.21 15.37 77.22 15.37C83.22 15.37 88.09 29.55 88.09 47Z" id="a2CrKnRYfd"></path></defs><g><g><g><use xlink:href="#bNUQ5UGv5" opacity="1" fill="#f3f3f3" fill-opacity="1"></use></g><g><use xlink:href="#d29brMob3j" opacity="1" fill="#634914" fill-opacity="1"></use></g><g><use xlink:href="#a2dQdSl52" opacity="1" fill="#50c33d" fill-opacity="1"></use></g><g><use xlink:href="#cynfgGfW8" opacity="1" fill="#634914" fill-opacity="1"></use></g><g><use xlink:href="#b1ByVmm3VV" opacity="1" fill="#379328" fill-opacity="1"></use></g><g><use xlink:href="#e35fNrN9Ly" opacity="1" fill="#634914" fill-opacity="1"></use></g><g><use xlink:href="#a2CrKnRYfd" opacity="1" fill="#236018" fill-opacity="1"></use></g></g></g></svg>